SplineFontDB: 3.2
FontName: Slanted-Symbol
FullName: Standard Symbols SL
FamilyName: Standard Symbols SL
Weight: Italic
Copyright: Copyright URW Software, Copyright 1997 by URW\nRevised for groff by Deri James, 2025
Version: 001.005_%{version}-%{release}
ItalicAngle: 0
UnderlinePosition: -229
UnderlineWidth: 46
Ascent: 800
Descent: 200
InvalidEm: 0
LayerCount: 2
Layer: 0 0 "Back" 1
Layer: 1 0 "Fore" 0
OS2Version: 0
OS2_WeightWidthSlopeOnly: 0
OS2_UseTypoMetrics: 0
CreationTime: 1750862636
ModificationTime: 1752064397
OS2TypoAscent: 0
OS2TypoAOffset: 1
OS2TypoDescent: 0
OS2TypoDOffset: 1
OS2TypoLinegap: 0
OS2WinAscent: 0
OS2WinAOffset: 1
OS2WinDescent: 0
OS2WinDOffset: 1
HheadAscent: 0
HheadAOffset: 1
HheadDescent: 0
HheadDOffset: 1
OS2Vendor: 'PfEd'
MarkAttachClasses: 1
DEI: 91125
Encoding: Custom
UnicodeInterp: none
NameList: AGL For New Fonts
DisplaySize: -72
AntiAlias: 1
FitToEm: 0
WinInfo: 81 9 5
BeginPrivate: 7
BlueValues 10 [ 673 693]
BlueScale 8 0.039625
StdHW 3 [0]
StdVW 3 [0]
StemSnapH 2 []
StemSnapV 2 []
ForceBold 5 false
EndPrivate
BeginChars: 256 29

StartChar: theta1
Encoding: 74 977 1
Width: 631
Flags: MW
HStem: 25 32 275 56 389 61 616 32
VStem: 100 79<96.5 109.5 96.5 112> 306 35<476 490.5> 480 65<474.5 491 456 493>
LayerCount: 2
Fore
SplineSet
588 311 m 1
 573 255 l 1
 557 262 537 272 514 283 c 1
 499 233 480 191 450 145 c 0
 389 53 310 5 215 5 c 0
 142 5 100 44 100 105 c 0
 100 119 102 135 107 151 c 0
 116 183 123 202 162 298 c 0
 167 311 171 323 173 330 c 0
 175 334 175 338 175 341 c 0
 175 358 163 369 144 369 c 0
 125 369 113 358 74 311 c 1
 50 311 l 1
 79 355 85 363 101 380 c 0
 134 415 161 429 195 429 c 0
 235 429 259 405 259 370 c 0
 259 362 258 354 256 345 c 0
 251 328 250 325 217 240 c 0
 202 200 190 170 186 153 c 0
 181 137 179 118 179 101 c 0
 179 92 180 85 181 78 c 0
 187 54 212 37 244 37 c 0
 325 37 402 127 441 268 c 2
 452 310 l 1
 357 355 306 416 306 484 c 0
 306 497 308 510 312 523 c 0
 328 584 381 628 435 628 c 0
 473 628 504 605 525 563 c 0
 538 535 545 509 545 473 c 0
 545 439 539 395 527 332 c 1
 534 330 545 325 562 319 c 0
 564 318 572 315 588 311 c 1
465 357 m 1
 476 424 480 461 480 488 c 0
 480 498 480 507 478 515 c 0
 473 568 452 596 417 596 c 0
 385 596 355 570 345 534 c 0
 342 524 341 515 341 505 c 0
 341 447 388 390 465 357 c 1
EndSplineSet
Validated: 1
EndChar

StartChar: sigma1
Encoding: 86 962 2
Width: 439
Flags: MW
HStem: -182 81 10 93 401 71
VStem: 68 49 328 47
LayerCount: 2
Fore
SplineSet
273 389 m 0
 199 389 112 309 87 218 c 0
 82 203 80 188 80 174 c 0
 80 125 107 90 151 90 c 0
 153 90 194 92 214 94 c 0
 228 95 241 95 253 95 c 0
 286 95 304 89 319 71 c 0
 331 55 338 35 338 11 c 0
 338 -2 336 -15 332 -29 c 0
 307 -118 219 -194 140 -194 c 0
 106 -194 82 -174 82 -149 c 0
 82 -145 82 -141 83 -138 c 0
 90 -112 114 -97 144 -97 c 0
 160 -97 169 -98 198 -110 c 0
 202 -112 208 -113 213 -113 c 0
 245 -113 278 -82 289 -44 c 0
 291 -38 291 -32 291 -27 c 0
 291 -8 279 2 254 2 c 0
 251 2 242 2 233 1 c 0
 216 0 153 -2 139 -2 c 0
 72 -2 31 49 31 123 c 0
 31 144 34 166 40 190 c 0
 81 336 224 461 350 461 c 0
 404 461 437 444 437 418 c 0
 437 415 437 412 436 409 c 0
 430 387 407 374 376 374 c 0
 362 374 361 374 306 385 c 0
 295 388 281 389 273 389 c 0
EndSplineSet
Validated: 1
EndChar

StartChar: alpha
Encoding: 97 945 3
Width: 631
Flags: W
HStem: 2 34<185 221 185 221> 2 68<455.5 456.5> 432 38<297.5 335.5>
VStem: 46 90<114 138 114 153.5> 390 42<325 356.5> 530 24<148 148>
LayerCount: 2
Fore
SplineSet
528 458 m 1xbc
 607 458 l 1
 429 178 l 2
 428 169 427 161 427 152 c 0
 427 104 443 70 468 70 c 0
 490 70 516 102 530 148 c 1
 554 148 l 1
 539 98 531 78 519 58 c 0
 497 21 471 2 442 2 c 0x7c
 413 2 402 16 393 66 c 0
 389 88 388 104 388 121 c 1
 329 42 260 2 182 2 c 0
 94 2 46 53 46 140 c 0
 46 167 50 197 59 231 c 0
 84 319 127 383 188 425 c 0
 229 453 277 470 318 470 c 0
 393 470 432 421 432 329 c 0
 432 321 431 313 431 305 c 1
 528 458 l 1xbc
384 228 m 1
 388 280 l 2
 390 294 390 307 390 319 c 0
 390 394 363 432 308 432 c 0
 281 432 257 419 234 394 c 0
 200 354 172 300 154 236 c 0
 143 193 136 154 136 122 c 0
 136 106 138 92 141 79 c 0
 148 54 171 36 199 36 c 0xbc
 243 36 291 79 347 170 c 2
 384 228 l 1
EndSplineSet
Validated: 1
EndChar

StartChar: beta
Encoding: 98 946 4
Width: 549
Flags: W
HStem: -2 44<180.369 319.045> 363 59<287.034 360.67> 369 45<329.328 390.644> 635 33<333.87 431.126>
VStem: 409 92<157.888 332.127> 456 87<486.547 616.61>
LayerCount: 2
Fore
SplineSet
38 -46 m 6x98
 195 520 l 6
 218 605 308 668 404 668 c 4
 486 668 543 619 543 555 c 4x94
 543 545 541 534 538 523 c 4
 524 472 481 431 403 395 c 5
 469 363 501 317 501 254 c 4
 501 235 498 214 491 191 c 4
 460 76 365 -2 259 -2 c 4
 207 -2 172 11 135 47 c 5
 101 -74 l 6
 82 -144 72 -168 55 -188 c 5
 -18 -188 l 5
 1 -154 25 -93 38 -46 c 6x98
268 529 m 6
 149 98 l 5
 169 63 208 42 253 42 c 4
 319 42 372 95 397 184 c 4
 405 213 409 241 409 267 c 4
 409 306 400 340 382 362 c 4
 378 367 373 369 361 369 c 4xb8
 354 369 345 368 333 365 c 4
 324 364 319 363 314 363 c 4
 294 363 281 371 281 384 c 4
 281 386 282 388 282 390 c 4
 287 407 308 422 329 422 c 4xd8
 336 422 343 421 356 418 c 4
 369 414 372 414 375 414 c 4xb8
 398 414 437 465 450 512 c 4
 454 528 456 543 456 557 c 4
 456 604 431 635 388 635 c 4
 335 635 286 592 268 529 c 6
EndSplineSet
Validated: 1
EndChar

StartChar: chi
Encoding: 99 967 5
Width: 549
Flags: HMW
HStem: -210 93 434 79
LayerCount: 2
Fore
SplineSet
478 449 m 5
 571 449 l 5
 298 117 l 5
 296 46 l 6
 295 34 295 22 295 11 c 4
 295 -72 309 -100 346 -100 c 4
 369 -100 393 -89 412 -68 c 4
 420 -59 426 -50 444 -19 c 5
 465 -19 l 5
 450 -65 433 -98 410 -125 c 4
 381 -160 342 -183 310 -183 c 4
 274 -183 251 -156 246 -106 c 5
 246 -91 l 6
 246 -77 247 -57 251 -9 c 6
 258 69 l 5
 67 -166 l 5
 -28 -166 l 5
 265 188 l 5
 268 298 l 6
 269 303 269 307 269 312 c 4
 269 330 267 345 264 354 c 4
 255 376 236 390 215 390 c 4
 182 390 145 355 124 302 c 5
 100 302 l 5
 137 401 191 460 244 460 c 4
 286 460 310 429 310 377 c 6
 310 370 l 5
 305 237 l 5
 478 449 l 5
EndSplineSet
Validated: 1
EndChar

StartChar: delta
Encoding: 100 948 6
Width: 494
Flags: HMW
HStem: 28 42 661 37
VStem: 18 97<110 150.5 110 153.5> 181 46<560 565> 339 94
LayerCount: 2
Fore
SplineSet
312 410 m 5
 248 491 l 6
 226 518 217 539 217 561 c 4
 217 569 218 577 220 585 c 4
 235 640 296 674 379 674 c 4
 465 674 527 640 527 598 c 4
 527 594 527 590 526 585 c 4
 520 564 497 547 473 547 c 4
 451 547 441 555 415 593 c 4
 391 626 374 636 342 636 c 4
 307 636 273 613 264 584 c 4
 263 580 263 577 263 573 c 4
 263 547 288 518 349 473 c 4
 415 425 427 415 447 377 c 4
 462 351 470 320 470 287 c 4
 470 266 467 244 460 221 c 4
 428 104 305 3 194 3 c 4
 109 3 54 64 54 145 c 4
 54 162 56 179 61 197 c 4
 80 264 131 326 201 367 c 4
 232 384 262 396 312 410 c 5
331 387 m 5
 245 370 189 313 163 217 c 4
 155 188 151 162 151 139 c 4
 151 81 175 45 220 45 c 4
 282 45 341 105 365 192 c 4
 372 217 375 241 375 263 c 4
 375 309 361 349 331 387 c 5
EndSplineSet
Validated: 1
EndChar

StartChar: epsilon
Encoding: 101 949 7
Width: 439
Flags: W
HStem: 1 44<160.39 306.488> 219 50<249.375 347.862> 226 37<203.598 295.623> 438 31<257.23 345.996>
VStem: 39 97<69.3727 171.25> 110 82<272.433 379.781> 359 89<355.625 401.766>
LayerCount: 2
Fore
SplineSet
380 124 m 5xba
 399 116 l 5
 359 37 294 1 195 1 c 4
 99 1 39 43 39 104 c 4xba
 39 113 40 123 43 133 c 4
 50 158 68 186 90 205 c 4
 111 223 131 232 170 245 c 5
 146 258 139 263 129 271 c 4
 117 282 110 299 110 318 c 4
 110 326 111 335 114 344 c 4
 123 377 146 404 185 429 c 4
 227 457 271 469 328 469 c 4
 402 469 450 441 450 402 c 4
 450 397 449 392 448 387 c 4
 441 362 416 343 393 343 c 4
 375 343 363 353 359 373 c 4
 358 375 358 382 357 395 c 4
 355 424 338 438 306 438 c 4
 260 438 211 395 196 343 c 4
 194 333 192 324 192 316 c 4
 192 283 213 263 249 263 c 4xb6
 257 263 265 264 295 267 c 4
 311 269 318 269 325 269 c 4
 343 269 352 264 352 254 c 4
 352 252 351 250 351 247 c 4
 346 231 323 219 296 219 c 4xd6
 288 219 277 221 267 223 c 4
 258 225 250 226 241 226 c 4
 194 226 155 192 140 140 c 4
 137 129 136 119 136 111 c 4
 136 98 140 87 148 77 c 4
 167 56 199 45 242 45 c 4
 306 45 345 68 380 124 c 5xba
EndSplineSet
Validated: 1
EndChar

StartChar: phi
Encoding: 102 966 8
Width: 521
Flags: HMW
HStem: -222 20 666 20
VStem: 27 97 238 41 393 97
LayerCount: 2
Fore
SplineSet
241 3 m 5
 214 -93 l 5
 207 -117 l 6
 197 -156 197 -159 190 -188 c 5
 151 -178 l 5
 160 -153 168 -128 179 -88 c 6
 204 2 l 5
 118 9 67 67 67 153 c 4
 67 175 71 199 78 225 c 4
 112 348 221 449 331 462 c 5
 353 541 l 6
 363 576 368 599 373 620 c 5
 410 603 l 5
 402 583 397 566 388 533 c 6
 368 462 l 5
 456 455 506 399 506 315 c 4
 506 293 502 269 495 244 c 4
 460 118 354 18 241 3 c 5
214 39 m 5
 323 430 l 5
 259 428 203 366 175 265 c 4
 165 226 159 189 159 155 c 4
 159 128 163 103 170 83 c 4
 178 63 192 49 214 39 c 5
358 424 m 5
 249 34 l 5
 315 38 369 99 398 204 c 4
 409 243 414 278 414 309 c 4
 414 368 395 409 358 424 c 5
EndSplineSet
Validated: 1
EndChar

StartChar: gamma
Encoding: 103 947 9
Width: 411
Flags: HMW
HStem: 431 82
LayerCount: 2
Fore
SplineSet
449 441 m 5
 544 441 l 5
 256 55 l 5
 248 -12 241 -55 233 -82 c 4
 213 -153 177 -199 140 -199 c 4
 119 -199 108 -184 108 -159 c 4
 108 -150 109 -140 112 -129 c 4
 121 -99 133 -73 165 -24 c 4
 195 24 213 52 218 61 c 6
 227 135 l 6
 232 167 234 204 234 237 c 4
 234 272 232 305 228 328 c 4
 221 365 208 380 184 380 c 4
 158 380 132 362 114 333 c 4
 107 321 102 308 93 284 c 5
 74 284 l 5
 77 295 l 6
 100 370 110 392 137 420 c 4
 157 440 185 453 211 453 c 4
 260 453 279 424 279 341 c 4
 279 321 278 298 276 272 c 6
 265 135 l 5
 449 441 l 5
EndSplineSet
Validated: 1
EndChar

StartChar: eta
Encoding: 104 951 10
Width: 603
Flags: W
HStem: 398 63<369.261 478> 404 49<158.711 236.5>
VStem: 200 86<328.117 402.709> 331 81<-194 -53.4531> 457 88<307.913 387.082>
LayerCount: 2
Fore
SplineSet
105 4 m 5xb8
 194 321 l 6
 198 335 200 348 200 360 c 4
 200 387 189 404 170 404 c 4
 149 404 129 378 109 323 c 5
 87 323 l 5
 97 356 105 374 121 396 c 4
 148 431 188 453 223 453 c 4x78
 250 453 272 441 282 421 c 4
 285 413 286 405 286 394 c 4
 286 387 286 380 285 370 c 5
 351 437 395 461 448 461 c 4
 508 461 545 424 545 370 c 4
 545 358 543 346 540 332 c 6
 418 -105 l 6
 414 -120 412 -136 412 -159 c 4
 412 -169 413 -180 413 -194 c 5
 331 -194 l 5
 331 -148 335 -114 343 -84 c 6
 451 307 l 6
 455 319 457 330 457 340 c 4
 457 377 435 398 395 398 c 4
 356 398 319 376 273 328 c 5
 183 4 l 5
 105 4 l 5xb8
EndSplineSet
Validated: 1
EndChar

StartChar: iota
Encoding: 105 953 11
Width: 329
Flags: HMW
HStem: -13 52 493 20
VStem: 0 88
LayerCount: 2
Fore
SplineSet
265 467 m 5
 171 127 l 6
 165 108 163 93 163 81 c 4
 163 57 173 45 192 45 c 4
 214 45 231 63 252 107 c 5
 277 106 l 5
 262 76 252 60 237 44 c 4
 210 17 173 -1 139 -1 c 4
 114 -1 93 10 84 29 c 4
 81 37 79 45 79 55 c 4
 79 68 82 86 90 114 c 6
 149 328 l 6
 155 349 158 364 158 375 c 4
 158 394 148 400 126 400 c 4
 119 400 108 399 90 398 c 5
 96 420 l 5
 149 430 224 451 265 467 c 5
EndSplineSet
Validated: 1
EndChar

StartChar: phi1
Encoding: 106 981 12
Width: 603
Flags: HMW
HStem: 17 38 404 69
VStem: 87 95<124 166.5 119.5 183> 510 86
LayerCount: 2
Fore
SplineSet
328 453 m 5
 323 433 l 5
 254 409 207 350 180 253 c 4
 170 215 164 181 164 152 c 4
 164 87 191 48 242 40 c 5
 302 283 l 6
 307 304 311 316 311 316 c 6
 334 402 394 458 461 458 c 4
 532 458 579 393 579 308 c 4
 579 286 576 263 569 240 c 4
 534 112 408 5 291 2 c 5
 236 -197 l 5
 177 -197 l 5
 232 2 l 5
 131 7 69 76 69 172 c 4
 69 194 72 217 79 241 c 4
 112 361 214 447 328 453 c 5
356 272 m 6
 301 38 l 5
 383 45 456 113 482 210 c 4
 489 234 492 259 492 281 c 4
 492 341 470 389 434 389 c 4
 404 389 378 356 361 295 c 4
 360 293 358 284 356 272 c 6
EndSplineSet
Validated: 1
EndChar

StartChar: kappa
Encoding: 107 954 13
Width: 549
Flags: HMW
HStem: 0 20 493 20
VStem: 119 78
LayerCount: 2
Fore
SplineSet
220 257 m 5
 256 283 l 5
 277 299 l 6
 335 345 423 406 460 426 c 4
 484 439 505 445 527 445 c 4
 560 445 581 430 581 407 c 4
 581 403 581 399 580 395 c 4
 572 369 543 348 513 348 c 4
 499 348 493 351 482 362 c 4
 470 375 465 377 457 377 c 4
 441 377 421 365 344 308 c 6
 294 272 l 5
 384 98 l 6
 416 40 416 40 427 33 c 4
 439 24 451 21 468 21 c 6
 476 21 l 5
 470 -1 l 5
 259 -1 l 5
 264 17 l 5
 268 17 l 6
 297 19 304 22 307 33 c 4
 308 35 308 36 308 37 c 4
 308 41 305 46 296 65 c 6
 210 222 l 5
 149 -1 l 5
 79 -1 l 5
 167 317 l 6
 173 338 176 353 176 364 c 4
 176 383 166 389 144 389 c 4
 136 389 126 388 110 386 c 5
 116 409 l 5
 194 425 243 440 275 456 c 5
 220 257 l 5
EndSplineSet
Validated: 1
EndChar

StartChar: lambda
Encoding: 108 955 14
Width: 549
Flags: HMW
HStem: -13 88 660 80
LayerCount: 2
Fore
SplineSet
183 509 m 5
 162 509 l 5
 201 614 242 661 296 661 c 4
 326 661 348 645 360 617 c 4
 367 599 370 558 370 506 c 4
 370 463 368 413 363 362 c 4
 362 353 361 346 362 344 c 6
 354 229 l 6
 351 194 349 172 349 155 c 4
 349 139 350 128 353 117 c 4
 359 86 377 69 404 69 c 4
 436 69 463 95 483 141 c 5
 502 141 l 5
 489 99 479 75 463 51 c 4
 437 12 403 -10 369 -10 c 4
 336 -10 313 11 304 49 c 4
 302 60 301 72 301 90 c 4
 301 132 307 199 320 321 c 5
 81 2 l 5
 -3 2 l 5
 326 446 l 5
 327 464 327 481 327 495 c 4
 327 508 327 519 326 527 c 4
 324 567 306 589 277 589 c 4
 237 589 203 560 183 509 c 5
EndSplineSet
EndChar

StartChar: mu
Encoding: 109 181 15
Width: 576
Flags: HW
HStem: -1 48<381 456.5> -1 63<158 246.5>
VStem: -12 92 333 85<75 82 82 82>
LayerCount: 2
Fore
SplineSet
500 455 m 5x70
 409 127 l 6
 405 112 403 99 403 88 c 4
 403 62 413 47 431 47 c 4
 452 47 478 74 491 107 c 5
 515 107 l 5
 483 38 434 -1 379 -1 c 4xb0
 353 -1 332 10 324 29 c 4
 320 40 318 50 318 69 c 6
 318 82 l 5
 256 26 203 -1 158 -1 c 4
 128 -1 110 9 81 40 c 5
 78 29 l 6
 71 4 71 -5 71 -37 c 4
 71 -88 70 -100 65 -119 c 4
 54 -158 29 -184 3 -184 c 4
 -16 -184 -27 -169 -27 -146 c 4
 -27 -138 -26 -130 -24 -120 c 4
 -18 -100 -16 -95 15 -39 c 4
 29 -13 38 10 43 28 c 6
 162 455 l 5
 240 455 l 5
 159 161 l 6
 154 146 152 133 152 121 c 4
 152 83 174 62 213 62 c 4
 250 62 286 82 331 127 c 5
 421 455 l 5
 500 455 l 5x70
EndSplineSet
EndChar

StartChar: nu
Encoding: 110 957 16
Width: 521
Flags: HMW
HStem: -13 20 493 20
LayerCount: 2
Fore
SplineSet
75 421 m 5
 82 447 l 5
 126 449 164 456 208 469 c 5
 249 120 l 5
 343 239 l 6
 376 279 389 301 395 324 c 4
 398 334 400 347 402 369 c 4
 405 411 405 414 407 419 c 4
 414 446 443 469 468 469 c 4
 491 469 507 453 507 430 c 4
 507 426 506 421 504 416 c 4
 496 384 459 330 379 231 c 6
 299 134 l 6
 290 122 282 110 272 97 c 4
 236 52 235 50 203 1 c 5
 176 1 l 5
 134 365 l 6
 127 418 126 420 75 421 c 5
EndSplineSet
Validated: 1
EndChar

StartChar: omicron
Encoding: 111 959 17
Width: 549
Flags: MW
HStem: -13 37 476 37
VStem: 35 99 403 98
LayerCount: 2
Fore
SplineSet
340 469 m 0
 432 469 489 408 489 317 c 0
 489 295 486 272 479 247 c 0
 440 109 317 1 198 1 c 0
 105 1 48 63 48 155 c 0
 48 177 51 201 58 227 c 0
 96 364 218 469 340 469 c 0
311 436 m 0
 244 436 187 374 157 266 c 0
 147 228 141 189 141 155 c 0
 141 128 145 103 152 84 c 0
 163 53 193 34 226 34 c 0
 293 34 350 97 380 206 c 0
 391 246 397 282 397 314 c 0
 397 389 366 436 311 436 c 0
EndSplineSet
Validated: 1
EndChar

StartChar: pi
Encoding: 112 960 18
Width: 549
Flags: HMW
HStem: -13 98 411 89
VStem: 312 73
LayerCount: 2
Fore
SplineSet
77 322 m 5
 59 322 l 5
 89 375 111 401 143 426 c 4
 175 451 194 457 242 457 c 6
 553 457 l 5
 532 378 l 5
 419 378 l 5
 400 329 372 246 353 178 c 4
 348 159 346 146 346 135 c 4
 346 129 346 124 348 119 c 4
 352 100 367 87 385 87 c 4
 415 87 438 110 454 152 c 5
 475 152 l 5
 460 108 452 91 433 66 c 4
 400 24 362 0 327 0 c 4
 290 0 270 28 270 78 c 4
 270 101 275 129 283 160 c 4
 298 211 332 307 362 378 c 5
 265 378 l 5
 223 263 l 6
 190 173 152 82 138 59 c 4
 116 21 89 0 61 0 c 4
 38 0 24 16 24 36 c 4
 24 40 24 45 26 49 c 4
 31 69 43 83 78 108 c 4
 115 135 132 155 143 180 c 6
 221 378 l 5
 180 378 l 6
 137 378 119 368 77 322 c 5
EndSplineSet
Validated: 1
EndChar

StartChar: theta
Encoding: 113 952 19
Width: 521
Flags: HMW
HStem: -13 39 312 56 649 37
LayerCount: 2
Fore
SplineSet
378 623 m 4
 417 623 453 604 479 571 c 4
 500 543 511 504 511 454 c 4
 511 412 503 363 487 307 c 4
 454 186 394 91 321 42 c 4
 279 15 240 0 206 0 c 4
 167 0 131 19 105 52 c 4
 84 80 73 120 73 170 c 4
 73 211 81 259 95 311 c 4
 130 436 189 532 263 581 c 4
 304 608 344 623 378 623 c 4
391 290 m 5
 181 290 l 5
 164 223 155 175 155 137 c 4
 155 117 158 99 162 83 c 4
 170 57 192 35 215 35 c 4
 238 35 272 56 295 83 c 4
 334 130 361 188 391 290 c 5
195 340 m 5
 405 340 l 5
 421 403 429 450 429 488 c 4
 429 508 427 526 423 542 c 4
 415 568 391 590 369 590 c 4
 347 590 312 568 289 542 c 4
 251 495 223 437 195 340 c 5
EndSplineSet
Validated: 1
EndChar

StartChar: rho
Encoding: 114 961 20
Width: 549
Flags: HMW
HStem: -13 49 453 60
VStem: 60 90 398 92
LayerCount: 2
Fore
SplineSet
111 50 m 5
 74 -84 l 6
 54 -155 53 -156 40 -187 c 5
 -43 -187 l 5
 -27 -154 -20 -133 -10 -98 c 6
 87 251 l 6
 105 314 121 345 155 376 c 4
 186 404 223 430 262 449 c 4
 288 461 308 466 337 466 c 4
 426 466 479 407 479 319 c 4
 479 296 476 272 469 247 c 4
 432 113 307 -2 201 -2 c 4
 156 -2 125 16 111 50 c 5
174 296 m 5
 138 147 l 6
 134 128 132 120 132 112 c 4
 132 109 132 106 133 103 c 4
 140 67 170 41 207 41 c 4
 280 41 348 106 374 202 c 4
 381 227 384 251 384 273 c 4
 384 353 343 412 278 412 c 4
 258 412 239 402 220 384 c 4
 198 363 187 343 178 309 c 6
 174 296 l 5
EndSplineSet
Validated: 1
EndChar

StartChar: sigma
Encoding: 115 963 21
Width: 603
Flags: HMW
HStem: -13 43 413 87
VStem: 30 105 427 106
LayerCount: 2
Fore
SplineSet
592 380 m 5
 397 380 l 5
 462 336 496 283 496 229 c 4
 496 216 494 204 491 192 c 4
 478 144 439 93 389 56 c 4
 338 20 281 1 221 1 c 4
 151 1 106 24 75 78 c 4
 57 107 48 142 48 178 c 4
 48 198 51 220 57 241 c 4
 80 323 148 393 245 432 c 4
 291 450 341 458 412 458 c 6
 614 458 l 5
 592 380 l 5
355 380 m 5
 328 380 l 6
 244 380 173 324 150 239 c 4
 143 215 140 192 140 171 c 4
 140 94 180 39 244 39 c 4
 310 39 372 102 397 194 c 4
 404 218 408 238 408 256 c 4
 408 294 392 327 355 380 c 5
EndSplineSet
Validated: 1
EndChar

StartChar: tau
Encoding: 116 964 22
Width: 439
Flags: HMW
HStem: -13 97 405 95
VStem: 181 57
LayerCount: 2
Fore
SplineSet
72 288 m 5
 49 288 l 5
 81 350 106 384 143 415 c 4
 180 446 211 458 257 458 c 6
 459 458 l 5
 435 373 l 5
 289 373 l 5
 281 353 279 344 267 310 c 4
 257 282 248 255 244 246 c 4
 233 215 224 187 220 173 c 4
 217 163 216 153 216 144 c 4
 216 111 234 88 265 88 c 4
 293 88 310 105 332 156 c 5
 354 156 l 5
 340 114 330 89 312 64 c 4
 288 27 245 1 209 1 c 4
 171 1 151 28 151 77 c 4
 151 98 155 124 164 153 c 4
 179 209 203 275 243 373 c 5
 178 373 l 6
 154 373 141 369 125 354 c 4
 107 337 89 314 72 288 c 5
EndSplineSet
Validated: 1
EndChar

StartChar: upsilon
Encoding: 117 965 23
Width: 576
Flags: HMW
HStem: -13 42 433 80
VStem: 453 82
LayerCount: 2
Fore
SplineSet
91 335 m 5
 64 335 l 5
 67 341 70 345 72 349 c 4
 103 400 111 412 132 432 c 4
 156 456 182 468 211 468 c 4
 249 468 267 450 267 408 c 4
 267 387 263 359 253 324 c 6
 212 167 l 6
 207 148 205 130 205 114 c 4
 205 67 227 37 265 37 c 4
 299 37 333 59 362 97 c 4
 396 141 422 196 437 249 c 4
 445 279 449 307 449 332 c 4
 449 356 446 377 438 393 c 4
 429 414 417 426 387 446 c 5
 400 468 l 5
 453 445 477 427 496 394 c 4
 510 370 517 341 517 308 c 4
 517 285 513 260 506 234 c 4
 487 167 448 101 402 60 c 4
 358 22 300 0 242 0 c 4
 168 0 129 39 129 108 c 4
 129 126 132 147 138 170 c 6
 175 314 l 6
 182 341 186 360 186 373 c 4
 186 391 178 397 164 397 c 4
 139 397 114 376 91 335 c 5
EndSplineSet
Validated: 1
EndChar

StartChar: omega1
Encoding: 118 982 24
Width: 713
Flags: HMW
HStem: -13 50 493 90
VStem: 25 106 561 106
LayerCount: 2
Fore
SplineSet
686 452 m 5
 539 452 l 5
 598 436 631 381 631 306 c 4
 631 279 626 249 618 218 c 4
 584 96 488 2 397 2 c 4
 343 2 310 31 297 92 c 5
 250 31 201 2 146 2 c 4
 77 2 35 58 35 139 c 4
 35 164 38 190 46 218 c 4
 79 336 161 428 253 452 c 5
 188 451 153 441 102 406 c 5
 87 406 l 5
 114 450 142 481 179 506 c 4
 211 526 230 532 263 532 c 6
 708 532 l 5
 686 452 l 5
455 452 m 5
 339 452 l 5
 298 441 272 427 246 405 c 4
 203 368 163 298 143 225 c 4
 132 186 126 148 126 117 c 4
 126 103 127 90 130 80 c 4
 135 60 153 46 177 46 c 4
 206 46 239 66 260 95 c 4
 273 112 279 125 293 155 c 5
 292 174 291 189 291 203 c 4
 291 234 295 257 303 287 c 4
 320 348 348 385 378 385 c 4
 398 385 408 370 408 342 c 4
 408 327 405 308 399 287 c 4
 387 243 374 215 336 155 c 5
 334 138 333 127 333 117 c 4
 333 110 334 103 335 95 c 4
 340 66 363 46 391 46 c 4
 415 46 441 60 457 80 c 4
 483 112 509 167 525 225 c 4
 535 260 540 294 540 323 c 4
 540 361 532 393 516 413 c 4
 502 432 485 442 455 452 c 5
EndSplineSet
Validated: 1
EndChar

StartChar: omega
Encoding: 119 969 25
Width: 686
Flags: HMW
HStem: -13 50 493 20
VStem: 42 106 298 130 578 106
LayerCount: 2
Fore
SplineSet
463 445 m 5
 470 468 l 5
 523 467 555 461 579 446 c 4
 620 421 641 372 641 309 c 4
 641 281 637 250 628 217 c 4
 594 94 498 0 408 0 c 4
 354 0 320 29 307 90 c 5
 260 29 210 0 157 0 c 4
 87 0 45 56 45 138 c 4
 45 162 49 189 57 217 c 4
 87 327 160 418 242 450 c 4
 273 462 306 467 354 468 c 5
 348 445 l 5
 307 434 282 422 255 400 c 4
 212 363 173 295 153 223 c 4
 142 184 136 146 136 116 c 4
 136 101 137 89 140 78 c 4
 145 58 164 44 187 44 c 4
 231 44 271 82 303 153 c 5
 302 172 301 187 301 201 c 4
 301 232 305 255 313 285 c 4
 330 346 358 384 388 384 c 4
 408 384 418 368 418 340 c 4
 418 325 415 306 409 285 c 4
 397 241 384 213 346 153 c 5
 345 143 344 133 344 125 c 4
 344 71 364 44 402 44 c 4
 425 44 451 58 468 78 c 4
 493 110 520 166 535 223 c 4
 545 257 549 289 549 318 c 4
 549 356 541 387 525 408 c 4
 510 425 494 436 463 445 c 5
EndSplineSet
Validated: 1
EndChar

StartChar: xi
Encoding: 120 958 26
Width: 493
Flags: W
HStem: -191 80<146.827 254.543> 4 90<104.735 313.529> 358 81<283.279 413.261> 669 20G<264 286>
VStem: 26 53<119.511 221.965> 175 34<418.517 503.195> 187 52<590.853 652.609> 317 59<-59.4542 28.5>
LayerCount: 2
Fore
SplineSet
303 687 m 5xfb
 298 671 l 5
 265 662 246 649 240 629 c 4
 239 625 239 622 239 618 c 4xfb
 239 601 252 589 276 588 c 5
 346 639 389 659 422 659 c 4
 444 659 455 652 455 640 c 4
 455 637 455 635 454 633 c 4
 448 612 423 590 388 575 c 4
 361 562 329 557 284 555 c 5
 244 530 220 504 212 476 c 4
 210 469 209 463 209 457 c 4
 209 438 219 423 242 402 c 5
 312 430 347 439 382 439 c 4
 417 439 436 430 436 414 c 4
 436 412 436 410 435 407 c 4
 427 376 379 358 308 358 c 4
 281 358 264 360 241 369 c 5
 155 326 102 273 84 210 c 4
 81 198 79 187 79 177 c 4
 79 144 94 118 119 105 c 4
 133 98 162 94 201 94 c 6
 278 94 l 6
 318 94 336 90 352 74 c 4
 368 59 376 40 376 17 c 4
 376 6 374 -6 370 -19 c 4
 359 -60 333 -101 299 -135 c 4
 259 -173 222 -191 180 -191 c 4
 142 -191 119 -175 119 -151 c 4
 119 -147 120 -143 121 -139 c 4
 127 -117 146 -102 169 -102 c 4
 177 -102 184 -103 204 -105 c 4
 221 -109 237 -111 242 -111 c 4
 275 -111 306 -86 315 -52 c 4
 317 -46 317 -40 317 -35 c 4
 317 -10 300 7 272 7 c 6
 269 7 l 6
 226 5 207 4 191 4 c 4
 137 4 103 10 79 24 c 4
 45 43 26 84 26 131 c 4
 26 149 29 167 34 186 c 4
 48 237 83 292 125 329 c 4
 145 347 164 360 201 383 c 5
 183 406 175 427 175 449 c 4xfd
 175 459 176 468 179 478 c 4
 187 507 206 534 233 555 c 5
 202 565 187 580 187 602 c 4
 187 607 188 614 190 620 c 4
 200 657 244 689 284 689 c 4
 288 689 295 688 303 687 c 5xfb
EndSplineSet
Validated: 1
EndChar

StartChar: psi
Encoding: 121 968 27
Width: 686
Flags: HMW
HStem: -222 20 493 20
VStem: 324 65
LayerCount: 2
Fore
SplineSet
425 448 m 5
 311 39 l 5
 374 52 408 88 437 170 c 6
 495 321 l 6
 512 369 525 389 549 413 c 4
 577 441 617 460 649 460 c 4
 665 460 677 457 703 448 c 5
 698 431 l 5
 636 420 624 410 600 348 c 6
 548 203 l 6
 509 98 409 15 301 0 c 5
 247 -195 l 5
 189 -195 l 5
 243 0 l 5
 157 13 105 77 105 161 c 4
 105 174 106 189 109 203 c 6
 137 348 l 6
 139 364 140 376 140 385 c 4
 140 416 127 424 85 431 c 5
 89 448 l 5
 119 457 134 460 150 460 c 4
 185 460 216 438 227 405 c 4
 231 394 233 384 233 372 c 4
 233 359 231 343 227 321 c 6
 201 170 l 6
 197 149 194 130 194 115 c 4
 194 71 213 48 254 39 c 5
 367 448 l 5
 425 448 l 5
EndSplineSet
Validated: 1
EndChar

StartChar: zeta
Encoding: 122 950 28
Width: 494
Flags: HMW
HStem: -168 75<156 264> 25 93 660 20G<480 504.5>
VStem: 59 56<129 209> 214 57<588 617> 328 46<-14.5 58.5>
LayerCount: 2
Fore
SplineSet
341 680 m 5
 336 662 l 5
 301 650 280 631 274 607 c 4
 272 602 271 597 271 593 c 4
 271 575 283 563 306 555 c 5
 406 627 464 658 496 658 c 4
 513 658 523 649 523 636 c 4
 523 634 523 632 522 629 c 4
 509 584 424 539 334 529 c 5
 241 462 153 339 123 233 c 4
 118 213 115 195 115 179 c 4
 115 127 143 95 192 95 c 6
 209 95 l 5
 220 95 l 5
 230 95 l 5
 249 95 l 6
 331 95 374 65 374 8 c 4
 374 -4 372 -18 368 -33 c 4
 342 -124 263 -190 176 -190 c 4
 136 -190 111 -174 111 -151 c 4
 111 -148 111 -145 112 -141 c 4
 119 -118 146 -99 174 -99 c 4
 184 -99 184 -99 234 -114 c 4
 239 -115 244 -115 249 -115 c 4
 279 -115 316 -84 325 -50 c 4
 327 -45 328 -39 328 -34 c 4
 328 -9 308 6 273 6 c 4
 266 6 243 5 204 3 c 4
 195 2 189 2 183 2 c 4
 147 2 119 13 96 36 c 4
 71 60 59 88 59 126 c 4
 59 150 64 178 73 212 c 4
 105 328 163 416 278 529 c 5
 233 541 214 554 214 578 c 4
 214 583 215 588 217 595 c 4
 230 642 279 676 341 680 c 5
EndSplineSet
Validated: 1
EndChar
